<?xml version="1.0" standalone="no"?><!DOCTYPE svg PUBLIC "-//W3C//DTD SVG 1.1//EN" "http://www.w3.org/Graphics/SVG/1.1/DTD/svg11.dtd"><svg t="1737443184728" class="icon" viewBox="0 0 1024 1024" version="1.1" xmlns="http://www.w3.org/2000/svg" p-id="7482" xmlns:xlink="http://www.w3.org/1999/xlink" width="256" height="256"><path d="M704.042337 1024H319.957663C143.156781 1024 0 880.843219 0 704.042337V319.957663C0 143.156781 143.156781 0 319.957663 0h384.084674c176.800882 0 319.957663 143.38258 319.957663 319.957663v384.084674c0 176.800882-143.156781 319.957663-319.957663 319.957663z" fill="#85C49C" p-id="7483"></path><path d="M272.088203 693.655568C194.187431 693.655568 167.09151 732.267255 167.09151 790.297685c0 58.03043 26.870121 96.642117 104.996693 96.642117 77.900772 0 104.996692-38.611687 104.996692-96.642117 0-58.03043-26.870121-96.642117-104.996692-96.642117" fill="#FFFFFF" p-id="7484"></path><path d="M841.779934 191.25204h-60.062624c-9.031974 0-14.902756 7.677178-14.902757 19.418743V307.0871h-30.031312V171.833297c0-11.515766-6.096582-19.418743-14.902756-19.418744h-60.062624c-9.031974 0-14.902756 7.677178-14.902756 19.418744v96.642116h-30.031312V171.833297c0-11.515766-6.096582-19.418743-14.902757-19.418744H541.918412c-9.031974 0-14.902756 7.677178-14.902756 19.418744v96.642116h-30.031312V210.444983c0-11.515766-6.096582-19.418743-14.902756-19.418743h-60.062624c-9.031974 0-14.902756 7.677178-14.902757 19.418743V307.0871H377.084895v-77.223373c0-58.03043-26.870121-96.642117-104.996692-96.642117-77.900772 0-104.770893 38.611687-104.770893 96.642117v463.791841c23.93473-27.095921 56.901433-38.611687 104.996692-38.611687s80.836163 11.515766 104.996693 38.611687V654.818082h30.031312v96.642116c0 11.515766 6.096582 19.418743 14.902756 19.418744h60.062624c9.031974 0 14.902756-7.677178 14.902756-19.418744v-135.253803h30.031312v96.642117c0 11.515766 6.096582 19.418743 14.902757 19.418743h60.062624c9.031974 0 14.902756-7.677178 14.902756-19.418743v-96.642117h30.031312v96.642117c0 11.515766 6.096582 19.418743 14.902756 19.418743h60.062624c9.031974 0 14.902756-7.677178 14.902757-19.418743V654.818082h30.031312v96.642116c0 11.515766 6.096582 19.418743 14.902756 19.418744h60.062624c9.031974 0 14.902756-7.677178 14.902757-19.418744V210.444983c-0.225799-11.515766-6.096582-19.192944-15.128556-19.192943M407.116207 616.206395H377.084895V345.698787h30.031312v270.507608z m359.698346 0h-30.031312V345.698787h30.031312v270.507608z m-209.541786-224.444543l10.160971-9.935171c3.838589 6.322381 7.225579 11.967365 11.741565 18.967145-4.741786 0.451599-7.902977 1.354796-10.612569 1.354796-18.967144 0.677398-38.160088-1.806395-57.127232 1.354796-5.419184 1.128997-10.838368 1.354796-16.257553 2.257993-4.515987 1.128997-9.257773 2.483793-14.451157 3.838589l-10.838369-13.322161c14.902756 0 28.450717-1.806395 44.48247-1.580595 12.870562-2.709592 28.450717-2.257993 42.901874-2.935392zM515.49989 483.210584l17.838147-1.128996c13.54796-0.451599 14.451158-1.128997 23.257332-11.741566l16.934951 16.483352-3.161191 19.418743c-0.451599 4.290187-1.128997 8.580375-1.354796 12.644763-0.451599 10.16097-6.322381 16.257552-14.902756 21.450937l-5.870783-4.064388v-12.644763l-30.257112 3.161191c2.032194 12.870562 1.354796 24.386329-9.709371 33.8699l-5.419184-4.290187v-63.675413l-8.806174-9.257773 16.031753-5.644984 4.290187 7.225579 1.128997-1.806395z m-16.934951-54.64344c12.193164-0.677398 22.579934-2.032194 33.869901 0.677398 5.419184-6.096582 13.54796-1.354796 21.450937-4.515986l6.322382-7.225579 7.677177 6.77398 2.032194 8.128776c-20.773539 1.806395-41.547078-1.128997-60.965821 6.322382l-10.38677-10.160971z m10.838369 35.902095l-9.257773-7.451378 0.677398-1.580595c18.289746-1.128997 36.579493-2.032194 54.869239-3.38699l7.677178-8.580375 7.225578 3.612789v9.709372l-60.062624 5.644983-1.128996 2.032194z m64.127012-104.319294c-1.580595 3.38699-2.483793 6.096582-3.38699 8.128776-21.225138 2.483793-41.772878 4.741786-62.772216 7.225579-1.806395-2.709592-3.612789-6.322381-6.096583-10.612569l22.805734-1.354796c7.225579-0.451599 14.451158-0.677398 21.676736-1.806395 3.38699-0.451599 6.548181-2.483793 9.483572-4.741786 2.483793-1.806395 4.290187-4.515987 6.096582-6.548181 7.902977-0.451599 7.225579 7.451378 12.193165 9.709372z m-29.128115 158.736935c3.838589-10.16097 2.709592-20.54774 4.741786-31.386108-11.289967 1.354796-21.450937 0.451599-30.031312 3.838589v28.902315l25.289526-1.354796z m103.641896-87.835943l3.61279 6.322382c5.644983-1.806395 9.709372 0.451599 12.193164 4.064388 3.838589 7.451378-7.451378 10.838368-2.257993 17.838147 7.451378 3.838589 12.644763-2.483793 18.967144-5.193384l13.54796 11.967365-2.257993 6.096582h-30.482911v20.096141c0 12.870562 0.451599 26.192723-0.451598 39.514884-0.677398 11.967365-7.677178 21.450937-16.483352 28.902315-3.612789 3.38699-6.548181 3.612789-12.418964 2.257994 1.128997-12.870562-9.709372-18.063947-19.418743-25.515325 8.806174-0.451599 16.031753-0.677398 22.354135-1.354796l4.290187-7.677178c2.257993-18.515546-2.032194-37.934289 3.161191-57.127233l-54.869239 3.38699-6.096582-12.870562h55.998236v-31.837707l-53.966042 7.451379-8.806175-12.644763c10.612569-1.580595 20.773539-0.677398 31.837707-1.128997l1.806395-12.418964 0.451599-12.418963-16.709152 3.38699-7.677177-11.289967H607.400221v-33.644102l-8.354576-9.709371c7.677178-2.483793 14.225358-4.515987 21.902536-7.451378 5.870783 2.709592 11.967365 6.548181 15.580154 13.322161-7.902977 10.838368-4.290187 22.579934-6.548181 34.547299 7.225579-1.128997 13.77376-1.806395 20.54774-2.483793 3.838589-3.38699 8.128776-6.548181 12.644763-10.38677 4.290187 4.515987 10.38677 7.225579 11.967365 13.999559l-5.870783 6.322382-42.224476 2.257993c5.419184 6.77398 2.709592 15.580154 3.838589 23.93473h39.514884l3.838589 7.225579V422.244763l12.644763-13.54796 16.483351 14.902756c-4.064388 9.483572-7.451378 11.741566-16.031753 10.838368-7.225579-0.677398-14.225358-1.580595-21.450937-2.483792-2.709592-0.225799-5.644983-1.354796-8.580375-2.032195-3.161191 0.451599-5.870783 0.677398-9.257773 1.128997z m-20.999338 72.029989c-3.38699 6.322381-3.161191 14.902756-13.999559 18.289747l-7.451378-5.644984 1.354796-1.128997-4.290188-21.676736c-2.709592-4.741786-5.419184-9.257773-8.128776-13.322161 0.451599-0.451599 1.128997-0.677398 1.580596-1.128997 12.870562 4.741786 22.805733 13.322161 30.934509 24.612128z m-377.762293 117.415656H219.476957v-397.406836h30.031312l-0.225799 397.406836z m76.094377 0h-30.031312v-397.406836h30.031312v397.406836z" fill="#FFFFFF" p-id="7485"></path></svg>